<svg width="100" height="55" viewBox="0 0 100 55" fill="none" xmlns="http://www.w3.org/2000/svg">
<path d="M27.2416 34.432C27.2416 33.728 27.007 33.1307 26.5376 32.64C26.0683 32.1493 25.4603 31.6907 24.7136 31.264C23.9883 30.816 23.2096 30.3573 22.3776 29.888C21.5456 29.3973 20.7563 28.832 20.0096 28.192C19.2843 27.552 18.687 26.7733 18.2176 25.856C17.7483 24.9387 17.5136 23.8187 17.5136 22.496H22.8256C22.8256 23.1787 23.0603 23.776 23.5296 24.288C23.999 24.7787 24.5963 25.248 25.3216 25.696C26.0683 26.1227 26.8576 26.5813 27.6896 27.072C28.5216 27.5413 29.3003 28.096 30.0256 28.736C30.7723 29.376 31.3803 30.1547 31.8496 31.072C32.319 31.9893 32.5536 33.1093 32.5536 34.432H27.2416ZM17.5136 22.528C17.5136 21.3547 17.8443 20.32 18.5056 19.424C19.167 18.5067 20.063 17.7813 21.1936 17.248C22.3243 16.7147 23.6043 16.448 25.0336 16.448V20.48C24.351 20.48 23.807 20.6613 23.4016 21.024C23.0176 21.3867 22.8256 21.888 22.8256 22.528H17.5136ZM32.5536 34.432C32.5536 35.6053 32.223 36.6507 31.5616 37.568C30.9003 38.464 30.0043 39.1787 28.8736 39.712C27.743 40.2453 26.463 40.512 25.0336 40.512V36.48C25.7163 36.48 26.2496 36.2987 26.6336 35.936C27.039 35.5733 27.2416 35.072 27.2416 34.432H32.5536ZM27.0816 23.008C26.975 22.1973 26.7403 21.5787 26.3776 21.152C26.0363 20.704 25.5883 20.48 25.0336 20.48V16.448C26.2496 16.448 27.3163 16.672 28.2336 17.12C29.1723 17.568 29.9403 18.2187 30.5376 19.072C31.135 19.9253 31.5296 20.96 31.7216 22.176L27.0816 23.008ZM22.1536 32.672C22.2176 33.8667 22.5056 34.8053 23.0176 35.488C23.5296 36.1493 24.2016 36.48 25.0336 36.48V40.512C22.8363 40.512 21.0656 39.8933 19.7216 38.656C18.3776 37.4187 17.599 35.7013 17.3856 33.504L22.1536 32.672ZM35.9119 40V16.96H41.2239V40H35.9119ZM53.5331 40L58.5251 16.96H62.3651L57.3731 40H53.5331ZM53.4051 40L48.4131 16.96H52.2531L57.2451 40H53.4051ZM45.3731 40V16.96H50.6851V40H45.3731ZM60.0931 40V16.96H65.4051V40H60.0931ZM78.3041 34.432C78.3041 33.728 78.0695 33.1307 77.6001 32.64C77.1308 32.1493 76.5228 31.6907 75.7761 31.264C75.0508 30.816 74.2721 30.3573 73.4401 29.888C72.6081 29.3973 71.8188 28.832 71.0721 28.192C70.3468 27.552 69.7495 26.7733 69.2801 25.856C68.8108 24.9387 68.5761 23.8187 68.5761 22.496H73.8881C73.8881 23.1787 74.1228 23.776 74.5921 24.288C75.0615 24.7787 75.6588 25.248 76.3841 25.696C77.1308 26.1227 77.9201 26.5813 78.7521 27.072C79.5841 27.5413 80.3628 28.096 81.0881 28.736C81.8348 29.376 82.4428 30.1547 82.9121 31.072C83.3815 31.9893 83.6161 33.1093 83.6161 34.432H78.3041ZM68.5761 22.528C68.5761 21.3547 68.9068 20.32 69.5681 19.424C70.2295 18.5067 71.1255 17.7813 72.2561 17.248C73.3868 16.7147 74.6668 16.448 76.0961 16.448V20.48C75.4135 20.48 74.8695 20.6613 74.4641 21.024C74.0801 21.3867 73.8881 21.888 73.8881 22.528H68.5761ZM83.6161 34.432C83.6161 35.6053 83.2855 36.6507 82.6241 37.568C81.9628 38.464 81.0668 39.1787 79.9361 39.712C78.8055 40.2453 77.5255 40.512 76.0961 40.512V36.48C76.7788 36.48 77.3121 36.2987 77.6961 35.936C78.1015 35.5733 78.3041 35.072 78.3041 34.432H83.6161ZM78.1441 23.008C78.0375 22.1973 77.8028 21.5787 77.4401 21.152C77.0988 20.704 76.6508 20.48 76.0961 20.48V16.448C77.3121 16.448 78.3788 16.672 79.2961 17.12C80.2348 17.568 81.0028 18.2187 81.6001 19.072C82.1975 19.9253 82.5921 20.96 82.7841 22.176L78.1441 23.008ZM73.2161 32.672C73.2801 33.8667 73.5681 34.8053 74.0801 35.488C74.5921 36.1493 75.2641 36.48 76.0961 36.48V40.512C73.8988 40.512 72.1281 39.8933 70.7841 38.656C69.4401 37.4187 68.6615 35.7013 68.4481 33.504L73.2161 32.672Z" fill="#0803FF"/>
<path d="M95 28C95 33.8026 90.5446 39.5237 82.2948 43.9119C74.1321 48.2538 62.7177 51 50 51C37.2823 51 25.8678 48.2538 17.7052 43.9119C9.45536 39.5237 5 33.8026 5 28C5 22.1974 9.45536 16.4763 17.7052 12.0881C25.8678 7.74625 37.2823 5 50 5C62.7177 5 74.1321 7.74625 82.2948 12.0881C90.5446 16.4763 95 22.1974 95 28Z" stroke="#0803FF" stroke-width="4"/>
</svg>
