<svg width="250" height="138" viewBox="0 0 250 138" fill="none" xmlns="http://www.w3.org/2000/svg">
<path d="M57.585 86.47C57.585 84.38 56.8883 82.6067 55.495 81.15C54.1017 79.6933 52.2967 78.3317 50.08 77.065C47.9267 75.735 45.615 74.3733 43.145 72.98C40.675 71.5233 38.3317 69.845 36.115 67.945C33.9617 66.045 32.1883 63.7333 30.795 61.01C29.4017 58.2867 28.705 54.9617 28.705 51.035H44.475C44.475 53.0617 45.1717 54.835 46.565 56.355C47.9583 57.8117 49.7317 59.205 51.885 60.535C54.1017 61.8017 56.445 63.1633 58.915 64.62C61.385 66.0133 63.6967 67.66 65.85 69.56C68.0667 71.46 69.8717 73.7717 71.265 76.495C72.6583 79.2183 73.355 82.5433 73.355 86.47H57.585ZM28.705 51.13C28.705 47.6467 29.6867 44.575 31.65 41.915C33.6133 39.1917 36.2733 37.0383 39.63 35.455C42.9867 33.8717 46.7867 33.08 51.03 33.08V45.05C49.0033 45.05 47.3883 45.5883 46.185 46.665C45.045 47.7417 44.475 49.23 44.475 51.13H28.705ZM73.355 86.47C73.355 89.9533 72.3733 93.0567 70.41 95.78C68.4467 98.44 65.7867 100.562 62.43 102.145C59.0733 103.728 55.2733 104.52 51.03 104.52V92.55C53.0567 92.55 54.64 92.0117 55.78 90.935C56.9833 89.8583 57.585 88.37 57.585 86.47H73.355ZM57.11 52.555C56.7933 50.1483 56.0967 48.3117 55.02 47.045C54.0067 45.715 52.6767 45.05 51.03 45.05V33.08C54.64 33.08 57.8067 33.745 60.53 35.075C63.3167 36.405 65.5967 38.3367 67.37 40.87C69.1433 43.4033 70.315 46.475 70.885 50.085L57.11 52.555ZM42.48 81.245C42.67 84.7917 43.525 87.5783 45.045 89.605C46.565 91.5683 48.56 92.55 51.03 92.55V104.52C44.5067 104.52 39.25 102.683 35.26 99.01C31.27 95.3367 28.9583 90.2383 28.325 83.715L42.48 81.245ZM83.3248 103V34.6H99.0948V103H83.3248ZM135.638 103L150.458 34.6H161.858L147.038 103H135.638ZM135.258 103L120.438 34.6H131.838L146.658 103H135.258ZM111.413 103V34.6H127.183V103H111.413ZM155.113 103V34.6H170.883V103H155.113ZM209.177 86.47C209.177 84.38 208.48 82.6067 207.087 81.15C205.693 79.6933 203.888 78.3317 201.672 77.065C199.518 75.735 197.207 74.3733 194.737 72.98C192.267 71.5233 189.923 69.845 187.707 67.945C185.553 66.045 183.78 63.7333 182.387 61.01C180.993 58.2867 180.297 54.9617 180.297 51.035H196.067C196.067 53.0617 196.763 54.835 198.157 56.355C199.55 57.8117 201.323 59.205 203.477 60.535C205.693 61.8017 208.037 63.1633 210.507 64.62C212.977 66.0133 215.288 67.66 217.442 69.56C219.658 71.46 221.463 73.7717 222.857 76.495C224.25 79.2183 224.947 82.5433 224.947 86.47H209.177ZM180.297 51.13C180.297 47.6467 181.278 44.575 183.242 41.915C185.205 39.1917 187.865 37.0383 191.222 35.455C194.578 33.8717 198.378 33.08 202.622 33.08V45.05C200.595 45.05 198.98 45.5883 197.777 46.665C196.637 47.7417 196.067 49.23 196.067 51.13H180.297ZM224.947 86.47C224.947 89.9533 223.965 93.0567 222.002 95.78C220.038 98.44 217.378 100.562 214.022 102.145C210.665 103.728 206.865 104.52 202.622 104.52V92.55C204.648 92.55 206.232 92.0117 207.372 90.935C208.575 89.8583 209.177 88.37 209.177 86.47H224.947ZM208.702 52.555C208.385 50.1483 207.688 48.3117 206.612 47.045C205.598 45.715 204.268 45.05 202.622 45.05V33.08C206.232 33.08 209.398 33.745 212.122 35.075C214.908 36.405 217.188 38.3367 218.962 40.87C220.735 43.4033 221.907 46.475 222.477 50.085L208.702 52.555ZM194.072 81.245C194.262 84.7917 195.117 87.5783 196.637 89.605C198.157 91.5683 200.152 92.55 202.622 92.55V104.52C196.098 104.52 190.842 102.683 186.852 99.01C182.862 95.3367 180.55 90.2383 179.917 83.715L194.072 81.245Z" fill="#0803FF"/>
<path d="M241.5 68.5C241.5 84.7074 229.417 100.149 208.176 111.743C187.067 123.265 157.666 130.5 125 130.5C92.3335 130.5 62.9329 123.265 41.8241 111.743C20.5834 100.149 8.5 84.7074 8.5 68.5C8.5 52.2926 20.5834 36.8505 41.8241 25.2567C62.9329 13.7347 92.3335 6.5 125 6.5C157.666 6.5 187.067 13.7347 208.176 25.2567C229.417 36.8505 241.5 52.2926 241.5 68.5Z" stroke="#0803FF" stroke-width="7"/>
</svg>
